<?xml version="1.0" standalone="no"?>
<!DOCTYPE svg PUBLIC "-//W3C//DTD SVG 20010904//EN"
 "http://www.w3.org/TR/2001/REC-SVG-20010904/DTD/svg10.dtd">
<svg version="1.0" xmlns="http://www.w3.org/2000/svg"
 width="980.000000pt" height="980.000000pt" viewBox="0 0 980.000000 980.000000"
 preserveAspectRatio="xMidYMid meet">

<g transform="translate(0.000000,980.000000) scale(0.100000,-0.100000)"
fill="#000000" stroke="none">
<path d="M4960 9034 c-19 -2 -933 -19 -2030 -39 -1139 -20 -2025 -39 -2065
-45 -172 -26 -278 -123 -339 -308 -40 -124 -50 -196 -50 -372 0 -363 110 -638
290 -726 l54 -26 297 6 c164 3 409 9 546 12 l247 6 0 -74 c0 -116 -6 -112 216
-118 l188 -5 39 -90 c140 -322 183 -616 114 -783 -32 -76 -98 -177 -169 -256
l-54 -59 -136 -13 c-233 -22 -252 -34 -254 -158 l0 -70 -175 -22 c-258 -33
-612 -93 -620 -105 -14 -23 -30 -185 -21 -209 22 -56 44 -65 170 -66 l117 0
42 -54 c100 -127 138 -236 136 -390 -1 -115 -23 -229 -70 -370 l-29 -85 -155
-6 c-189 -7 -260 -21 -302 -59 -31 -27 -32 -32 -32 -103 l0 -75 -75 -6 c-49
-4 -93 -16 -127 -32 -162 -78 -285 -368 -313 -737 -23 -308 41 -587 165 -711
80 -79 171 -94 644 -104 l304 -7 -52 -33 c-138 -90 -198 -267 -208 -613 -8
-279 25 -449 125 -644 104 -201 259 -288 559 -314 65 -6 276 -11 468 -11 544
0 890 -14 2070 -80 1215 -68 1513 -80 2080 -80 802 0 1680 55 2565 161 230 27
218 23 243 78 29 64 30 182 2 230 -32 54 -85 76 -186 76 l-86 0 -7 164 c-3 90
-6 242 -6 336 l0 172 93 11 c169 21 243 55 281 127 18 35 21 56 20 168 -1 94
-5 133 -15 143 -10 9 -86 17 -274 29 -368 21 -858 44 -1148 51 l-249 7 7 31
c36 175 4 276 -106 331 -72 37 -154 45 -471 45 l-286 0 -7 29 c-10 44 12 258
35 340 31 110 45 133 78 127 137 -28 559 -96 590 -96 58 0 92 32 99 92 3 26 1
60 -5 77 l-11 30 112 -6 c249 -12 388 59 473 242 64 139 93 289 101 525 11
331 -44 479 -216 579 -62 36 -82 41 -356 91 -159 28 -299 55 -310 59 -15 6 -8
11 35 21 230 53 361 215 461 569 94 335 120 705 63 924 -35 138 -112 250 -203
296 -40 21 -41 23 -35 60 8 48 -23 122 -60 146 -19 13 -96 26 -269 47 -133 16
-248 35 -255 41 -24 19 -64 96 -78 149 -29 113 -39 368 -19 503 l5 30 447 0
c476 0 476 0 508 49 19 29 42 233 28 247 -10 10 -219 60 -1438 339 -1709 392
-1623 374 -1745 364z m425 -107 c132 -31 566 -130 965 -221 1121 -256 1761
-404 1764 -408 6 -7 -14 -164 -24 -186 -5 -12 -21 -27 -36 -32 -27 -11 -876
-14 -887 -4 -3 3 -2 14 3 23 5 9 14 55 20 102 6 47 15 90 18 96 5 8 64 -1 192
-27 341 -72 535 -111 550 -113 9 -1 15 6 15 17 0 17 -52 31 -475 127 -261 60
-594 134 -740 164 -146 31 -422 90 -615 130 -192 41 -474 103 -625 139 -151
36 -295 66 -320 66 -53 0 -103 -27 -123 -67 -23 -44 -75 -218 -96 -323 -74
-361 -42 -637 86 -735 50 -38 64 -42 334 -79 102 -14 307 -49 455 -76 566
-106 1202 -200 1761 -260 134 -15 166 -31 184 -90 11 -34 10 -43 -3 -56 -12
-12 -23 -13 -59 -5 -24 6 -134 20 -244 31 -110 11 -252 29 -315 40 -63 10
-200 31 -305 45 -104 14 -383 55 -620 91 -618 93 -942 141 -1085 159 -69 8
-181 24 -250 35 -69 11 -213 29 -320 40 l-195 20 -53 53 c-84 82 -161 182
-193 252 -158 348 -92 824 141 1022 78 66 97 70 331 78 l214 8 -39 -43 c-66
-73 -117 -213 -82 -226 21 -8 46 13 46 40 0 36 46 119 86 158 102 97 178 99
539 15z m-1122 -1 c-155 -141 -234 -352 -234 -621 0 -195 36 -352 115 -502 38
-73 113 -168 159 -203 15 -12 27 -25 27 -28 0 -4 -57 -4 -127 1 l-128 8 -78
80 c-63 65 -87 100 -127 182 -78 163 -94 238 -95 452 0 205 11 264 75 400 45
98 102 171 176 226 63 48 94 56 213 58 l84 1 -60 -54z m-284 17 c-8 -10 -29
-34 -48 -53 -80 -84 -138 -197 -174 -338 -18 -74 -22 -113 -21 -257 1 -150 4
-182 27 -267 46 -175 102 -291 178 -373 l57 -60 -162 7 c-243 10 -1340 9
-1596 -2 -124 -5 -323 -9 -443 -10 l-219 0 -56 55 -57 55 30 0 c54 0 960 61
973 65 6 2 12 11 12 20 0 12 -13 15 -57 15 -94 0 -801 -41 -945 -55 l-57 -6
-41 84 c-22 47 -52 129 -67 183 -24 90 -26 117 -27 289 -1 166 2 201 22 280
42 167 124 293 215 329 23 10 131 15 382 20 547 10 944 18 1265 26 162 4 414
7 559 8 249 2 263 1 250 -15z m-2565 -69 c-52 -52 -112 -172 -137 -274 -65
-268 -35 -587 76 -806 l26 -52 -32 -6 c-28 -4 -132 -9 -163 -7 -18 1 -90 156
-113 240 -34 124 -46 275 -33 405 26 247 103 425 222 512 42 31 51 34 122 34
l77 0 -45 -46z m-204 30 c0 -4 -18 -27 -41 -51 -51 -55 -110 -179 -139 -293
-28 -108 -38 -349 -20 -471 15 -107 53 -228 95 -305 l33 -61 -60 -7 c-34 -3
-90 -6 -125 -6 -49 0 -65 -4 -70 -16 -12 -32 11 -37 146 -28 l130 9 48 -46 49
-46 -209 -7 -209 -8 -54 27 c-69 34 -123 100 -176 215 -52 111 -75 203 -87
348 -20 223 16 445 93 577 49 82 154 148 263 164 69 10 333 14 333 5z m4269
-214 c299 -69 797 -178 1311 -285 200 -41 366 -77 368 -79 4 -5 -24 -156 -32
-163 -3 -3 -74 6 -158 21 -302 52 -1213 206 -1225 206 -7 0 -13 -7 -13 -15 0
-8 3 -15 8 -15 4 0 192 -33 417 -74 226 -41 535 -96 688 -122 l278 -48 -6 -86
c-3 -47 -8 -97 -11 -111 l-5 -25 -357 63 c-367 64 -412 70 -412 53 0 -13 -10
-11 403 -84 197 -35 359 -65 361 -67 2 -2 6 -57 9 -121 4 -87 2 -118 -6 -118
-7 0 -307 49 -667 109 -387 65 -659 106 -664 101 -20 -20 -7 -22 1001 -200
189 -33 344 -60 347 -60 2 0 7 -21 11 -46 3 -25 22 -74 40 -110 l34 -65 -32 6
c-18 3 -131 19 -252 36 -334 46 -699 105 -1020 164 -336 63 -432 78 -610 100
-149 18 -201 38 -238 93 -100 147 -92 492 19 852 20 63 43 123 51 133 26 28
89 21 362 -43z m-4015 -1049 l57 -58 -53 -6 c-107 -13 -119 -11 -186 43 -34
28 -62 55 -62 60 0 9 45 14 140 18 43 2 49 -1 104 -57z m2621 -100 c953 -63
1411 -168 1595 -367 53 -58 94 -146 117 -254 28 -132 25 -457 -5 -606 -64
-320 -193 -528 -367 -593 -62 -23 -49 -25 -230 27 -375 108 -547 141 -1090
206 -338 41 -534 49 -1030 43 -433 -5 -705 -19 -1024 -52 -79 -8 -147 -12
-150 -9 -13 13 -6 114 10 129 19 20 86 30 291 47 209 16 1214 16 1533 0 303
-16 639 -40 745 -53 47 -5 162 -19 255 -30 94 -11 271 -35 394 -55 220 -34
224 -34 255 -16 40 23 87 116 115 229 50 199 76 574 51 730 -12 73 -42 148
-73 181 -69 74 -279 128 -702 181 -630 79 -1459 121 -2371 121 -394 0 -443 2
-448 16 -9 23 -7 97 2 112 6 9 70 15 228 21 292 12 1685 6 1899 -8z m1494
-181 c667 -113 1533 -237 1926 -275 253 -25 345 -55 421 -137 22 -24 53 -69
68 -99 105 -216 81 -680 -56 -1077 -122 -355 -266 -471 -583 -472 -162 0
-1064 140 -1330 207 -155 39 -574 159 -583 168 -2 1 19 13 45 26 79 37 171
140 230 254 62 124 87 198 113 345 55 302 29 663 -58 824 -39 72 -138 157
-245 210 -50 25 -85 46 -78 46 8 0 66 -9 130 -20z m-2124 -30 c1056 -45 1729
-125 1936 -230 50 -26 93 -86 111 -153 22 -85 16 -404 -10 -557 -36 -211 -93
-377 -136 -393 -7 -3 -128 12 -267 33 -637 96 -1266 135 -2175 135 l-621 0 50
55 c27 30 61 72 76 94 l25 39 256 -7 c764 -20 1274 -26 1283 -17 6 6 8 13 5
16 -2 3 -263 12 -579 20 -875 23 -941 26 -935 39 49 111 59 147 64 233 l5 92
41 5 c22 3 145 10 271 16 259 12 298 16 293 32 -5 13 -107 12 -413 -2 -133 -7
-191 -6 -196 1 -4 6 -9 34 -13 63 -3 28 -16 88 -30 133 l-24 83 37 7 c63 13
1070 9 1266 -5 253 -18 608 -50 745 -67 144 -18 150 -18 150 0 0 8 -4 15 -9
15 -4 0 -102 11 -217 25 -236 28 -448 48 -704 67 -195 14 -961 18 -1158 5
-112 -7 -123 -6 -129 10 -3 10 -26 64 -50 120 -23 57 -43 106 -43 110 0 8 780
-4 1095 -17z m355 -1400 c379 -32 643 -89 776 -166 59 -35 127 -111 163 -183
30 -59 56 -77 67 -47 8 21 -53 130 -105 188 -24 27 -69 63 -98 80 -30 17 -52
32 -50 34 13 13 537 -108 566 -130 22 -17 108 -202 128 -276 26 -93 26 -482 0
-620 -25 -135 -76 -277 -151 -428 l-66 -131 -117 -3 c-65 -2 -162 -2 -215 0
l-97 3 37 33 c82 75 146 223 182 421 22 122 21 149 -6 143 -13 -2 -22 -31 -39
-114 -44 -216 -96 -335 -180 -413 -29 -26 -70 -52 -92 -59 -58 -17 -236 -15
-573 8 -807 54 -1761 93 -2557 106 l-422 7 -7 44 c-13 91 21 116 182 134 211
23 651 4 1574 -66 986 -75 1390 -83 1566 -30 123 36 193 188 229 495 17 146
20 417 4 489 -14 65 -71 131 -140 160 -126 54 -147 56 -779 56 -681 -1 -992
-13 -2041 -82 -403 -26 -418 -26 -444 -9 -27 18 -28 19 -21 99 4 45 8 82 10
84 1 2 100 19 219 38 469 74 927 121 1442 145 225 11 888 5 1055 -10z m1437
-252 c45 -11 46 -12 89 -102 71 -149 79 -197 78 -451 0 -255 -12 -343 -75
-530 -22 -66 -67 -176 -100 -244 l-60 -123 -47 7 c-26 4 -48 8 -48 8 -1 1 24
56 57 122 69 142 131 323 156 455 25 137 25 507 0 600 -20 74 -62 181 -89 225
-30 49 -28 50 39 33z m265 -82 c466 -144 696 -195 1213 -271 132 -19 272 -42
310 -50 39 -8 111 -19 160 -25 50 -6 184 -27 299 -46 235 -40 221 -33 280
-144 65 -122 71 -160 70 -400 -2 -353 -45 -514 -197 -743 -42 -62 -56 -76 -72
-72 -53 13 -606 121 -848 165 -545 99 -1103 185 -1374 211 l-132 13 24 45 c71
134 152 353 179 482 35 175 46 415 25 564 -12 89 -41 188 -75 259 -13 28 -24
51 -24 53 0 7 26 1 162 -41z m-1382 14 c198 -19 286 -56 321 -134 26 -60 34
-202 20 -387 -22 -307 -71 -485 -150 -552 -91 -76 -463 -81 -1346 -17 -225 17
-531 39 -680 49 -376 28 -620 41 -747 41 -59 0 -108 3 -108 7 0 4 12 37 28 75
l27 68 85 1 c47 1 357 5 689 8 470 5 605 9 609 19 3 9 -138 12 -683 12 l-687
0 6 23 c3 12 12 52 18 90 l12 67 171 0 c219 0 335 9 335 25 0 10 -55 13 -247
12 l-248 -2 -6 85 c-4 47 -10 103 -14 126 l-7 41 323 6 c347 8 582 18 964 43
422 27 538 38 543 52 5 15 -40 16 -209 2 -316 -25 -763 -45 -1425 -66 l-210
-6 -28 54 c-15 30 -46 79 -68 108 -21 28 -37 54 -34 57 12 12 1117 76 1581 92
345 12 1046 12 1165 1z m3720 -466 c18 -5 68 -78 104 -150 43 -87 56 -163 56
-346 0 -203 -14 -346 -46 -456 -41 -142 -179 -392 -216 -392 -28 0 -108 23
-108 32 0 4 20 38 44 75 151 234 197 412 199 758 1 242 -16 318 -105 463 l-20
33 38 -6 c22 -4 46 -9 54 -11z m153 -28 c125 -24 236 -91 282 -170 47 -81 66
-184 66 -362 0 -177 -11 -284 -43 -414 -63 -259 -189 -370 -421 -370 l-78 0
29 43 c50 73 141 268 166 357 30 107 46 261 46 444 0 216 -22 314 -95 424 -19
30 -35 56 -35 58 0 6 0 6 83 -10z m-6296 -804 c9 -6 -8 -33 -59 -93 -81 -96
-120 -154 -170 -254 -131 -261 -162 -586 -83 -858 13 -45 23 -82 22 -83 -1 -1
-82 -4 -180 -7 l-179 -5 -29 61 c-44 95 -69 208 -76 342 -16 325 90 613 306
836 l66 68 185 0 c102 1 191 -3 197 -7z m-709 -29 c198 -6 212 -7 200 -23 -7
-10 -34 -44 -61 -76 -56 -70 -147 -251 -176 -349 -34 -117 -51 -242 -52 -379
-1 -162 20 -267 85 -417 6 -14 -9 -17 -115 -22 l-123 -6 -57 30 c-76 41 -153
106 -173 148 -9 18 -14 36 -11 39 3 3 5 0 5 -6 0 -37 122 -132 170 -132 34 0
23 21 -49 89 -51 49 -73 79 -86 116 -30 83 -64 99 -66 32 -1 -27 -4 -23 -20
28 -36 114 -19 367 37 563 29 104 89 232 133 287 41 50 110 98 130 90 9 -4
112 -9 229 -12z m1562 -43 c246 -9 424 -9 545 -3 99 5 182 8 184 7 2 -2 -17
-29 -43 -61 -84 -108 -160 -293 -193 -473 -23 -129 -24 -462 -1 -570 9 -43 12
-77 7 -81 -5 -3 -30 -6 -57 -8 -26 -1 -78 -6 -117 -11 -71 -9 -177 1 -222 22
-13 7 -66 8 -135 5 -62 -3 -255 -11 -428 -16 -173 -6 -386 -13 -472 -16 -182
-6 -166 -15 -199 113 -29 114 -42 292 -29 399 31 258 125 468 286 642 l68 74
221 -6 c121 -3 384 -11 585 -17z m1088 -5 c2 -2 -22 -36 -53 -77 -105 -136
-181 -326 -206 -515 -7 -55 -9 -148 -6 -248 6 -175 25 -275 77 -422 18 -48 34
-96 37 -105 5 -16 -4 -18 -98 -17 -57 1 -131 4 -163 8 l-59 6 -25 70 c-62 179
-90 420 -72 625 23 273 98 471 244 643 l41 48 140 -6 c77 -4 141 -8 143 -10z
m367 -30 c110 -8 294 -15 409 -15 l208 0 -37 -42 c-59 -65 -114 -197 -138
-333 -12 -68 42 -77 56 -10 39 185 108 312 192 355 49 25 54 25 260 24 220 -1
366 -15 795 -75 509 -72 1870 -318 1898 -344 8 -7 16 -40 19 -73 5 -49 3 -63
-9 -67 -8 -3 -125 14 -259 39 -646 120 -1782 294 -2089 321 -78 7 -263 -8
-316 -25 -38 -13 -111 -90 -135 -144 -62 -143 -84 -523 -36 -637 41 -100 159
-139 517 -173 623 -60 2247 -86 2338 -37 38 20 23 43 -38 57 -113 27 -361 55
-532 61 -125 4 -178 10 -178 18 0 14 522 10 625 -5 158 -24 210 -94 190 -256
l-7 -57 -71 7 c-79 7 -893 30 -1637 46 -647 14 -1108 29 -1241 40 -126 12
-188 36 -228 91 -73 99 -131 136 -131 84 0 -14 -8 -29 -20 -35 -13 -7 -163 -8
-475 -4 l-455 7 -15 51 c-36 126 -49 233 -49 401 0 153 2 181 27 278 42 168
115 308 225 430 41 44 36 44 337 22z m1455 -331 c180 -15 465 -49 707 -84 200
-29 787 -122 791 -126 4 -3 -39 -126 -47 -136 -3 -4 -116 2 -251 12 -385 29
-859 54 -867 47 -18 -18 30 -26 267 -41 449 -29 825 -59 833 -67 8 -6 -6 -136
-16 -145 -2 -2 -75 2 -163 10 -93 7 -163 9 -169 4 -19 -17 16 -25 176 -38
l160 -13 -3 -90 -3 -91 -55 2 c-30 1 -232 9 -448 18 -216 9 -396 13 -399 10
-19 -19 46 -26 382 -40 527 -23 535 -24 535 -50 0 -11 3 -31 7 -44 l6 -24
-234 7 c-1094 29 -1595 69 -1729 138 -74 38 -84 67 -88 242 -5 239 42 452 109
494 53 32 159 34 499 5z m-4973 -606 c-3 -8 -6 -5 -6 6 -1 11 2 17 5 13 3 -3
4 -12 1 -19z m958 -308 c8 -16 36 -54 60 -85 l45 -55 -166 0 c-189 0 -181 -3
-273 104 l-44 51 104 6 c57 3 139 6 181 7 77 2 78 2 93 -28z m1335 -145 c0 -3
-15 -25 -34 -50 -91 -118 -156 -429 -156 -738 0 -232 24 -399 80 -567 15 -47
26 -87 23 -90 -2 -3 -55 -5 -116 -5 l-112 0 -32 95 c-65 193 -90 418 -73 650
24 318 81 524 180 649 l40 50 92 4 c51 1 96 4 101 5 4 1 7 0 7 -3z m-280 -29
c0 -2 -16 -28 -35 -57 -126 -192 -192 -731 -131 -1072 13 -71 57 -223 82 -284
7 -16 -104 -17 -211 -3 -38 5 -146 16 -240 25 -313 29 -420 59 -496 142 -68
74 -138 239 -179 425 -29 131 15 481 77 616 28 60 69 88 175 120 119 37 415
73 688 85 121 6 270 7 270 3z m585 -35 c572 -80 1177 -98 1592 -46 65 8 124
15 131 15 9 0 5 -14 -12 -42 -97 -169 -179 -627 -162 -908 11 -173 48 -353
103 -497 4 -9 -4 -10 -29 -3 -47 13 -374 56 -563 74 -291 28 -585 38 -995 35
l-405 -4 -31 95 c-56 168 -78 325 -78 560 0 230 15 346 64 517 33 113 60 174
94 212 25 27 41 27 291 -8z m1979 -1 l78 0 -15 -22 c-110 -156 -173 -386 -197
-723 -24 -331 37 -655 161 -854 22 -35 39 -65 37 -66 -2 -2 -56 0 -121 2
l-117 6 -35 57 c-120 197 -175 423 -175 718 0 330 80 689 187 834 43 59 46 60
81 54 21 -3 72 -6 116 -6z m316 -55 c74 -8 222 -18 328 -22 178 -6 210 -11
181 -29 -23 -14 -69 -135 -84 -220 -10 -58 -15 -152 -15 -283 0 -216 6 -271
26 -271 16 0 17 2 14 100 -1 41 4 134 10 205 26 303 91 473 200 524 70 32
1517 27 2365 -9 337 -14 849 -41 935 -48 l75 -7 0 -122 c0 -134 -9 -159 -72
-196 -57 -33 -266 -76 -260 -53 1 6 16 11 32 13 61 6 116 34 145 75 16 22 26
46 23 54 -28 74 -906 121 -1788 95 -617 -18 -793 -33 -935 -77 -79 -25 -115
-51 -155 -112 -60 -93 -92 -301 -75 -482 24 -253 109 -431 226 -476 104 -40
897 3 2234 121 432 38 466 37 513 -15 23 -26 27 -39 27 -90 0 -32 -4 -69 -9
-82 l-9 -24 -503 -12 c-758 -19 -1001 -34 -1674 -102 -532 -53 -751 -65 -929
-49 l-140 12 -44 41 c-24 22 -54 61 -67 86 -35 70 -74 220 -94 361 -10 71 -21
132 -25 136 -3 4 -11 2 -18 -5 -26 -26 50 -438 101 -545 16 -34 29 -62 28 -63
-4 -2 -314 45 -397 60 -73 13 -317 47 -430 59 -32 4 -37 9 -57 60 -67 166 -97
379 -90 627 10 320 71 588 170 744 29 46 32 48 66 42 20 -4 97 -13 171 -21z
m2550 -255 c390 -10 1067 -38 1088 -45 9 -3 12 -37 12 -125 l0 -120 -142 -1
c-535 -5 -1028 -15 -1034 -21 -4 -5 -5 -10 -2 -13 3 -3 269 -6 592 -5 l586 0
0 -115 c0 -63 -1 -115 -2 -116 -2 0 -170 -9 -374 -19 -205 -9 -377 -21 -384
-25 -34 -21 38 -23 378 -9 206 9 375 14 378 11 2 -2 5 -42 7 -88 l2 -84 -50
-2 c-966 -48 -1652 -87 -1659 -94 -5 -5 -7 -12 -3 -15 6 -7 522 15 1337 56
201 10 368 16 373 13 7 -4 11 -93 4 -93 -2 0 -190 -16 -418 -35 -917 -76
-1348 -105 -1714 -112 -214 -4 -301 -3 -327 6 -74 24 -138 124 -179 277 -30
113 -38 341 -14 455 32 160 76 223 179 259 174 60 627 80 1366 60z m-5172
-1175 l41 -65 -118 0 -119 0 -36 61 c-20 33 -36 62 -36 65 0 2 51 4 113 4
l113 0 42 -65z"/>
<path d="M4686 8512 c-11 -18 -10 -162 2 -174 21 -21 30 3 33 85 3 65 1 80
-13 88 -9 5 -19 6 -22 1z"/>
<path d="M2653 7795 c-11 -29 12 -36 118 -33 96 3 104 4 104 23 0 19 -8 20
-108 23 -91 2 -108 0 -114 -13z"/>
<path d="M3200 7795 c-23 -27 0 -35 106 -35 95 0 104 2 104 19 0 26 -19 31
-115 31 -60 0 -86 -4 -95 -15z"/>
<path d="M5752 5708 c3 -26 -13 -22 453 -93 132 -20 378 -59 547 -87 169 -28
314 -48 323 -44 21 8 19 23 -4 31 -31 10 -438 82 -676 121 -121 19 -301 48
-400 65 -99 16 -195 29 -213 29 -29 0 -33 -3 -30 -22z"/>
<path d="M7237 5483 c-4 -3 -2 -12 4 -20 8 -9 37 -13 94 -13 86 0 102 5 84 27
-12 14 -169 20 -182 6z"/>
<path d="M4842 5278 c-5 -7 -13 -76 -17 -153 -6 -118 -5 -143 8 -153 30 -25
40 12 45 157 4 112 2 139 -10 149 -12 10 -17 10 -26 0z"/>
<path d="M5780 5245 c0 -2 11 -37 24 -77 77 -229 76 -406 -4 -742 -11 -50 -19
-95 -16 -101 2 -6 30 -19 62 -28 47 -14 663 -117 1256 -212 156 -24 142 -32
182 93 68 211 89 403 62 562 -24 139 -64 260 -90 270 -35 15 -897 163 -1243
215 -167 24 -233 30 -233 20z m513 -104 c696 -112 941 -154 950 -161 4 -3 22
-60 39 -126 27 -105 31 -135 31 -254 0 -140 -10 -207 -60 -386 -13 -50 -28
-95 -31 -101 -5 -8 -51 -3 -147 13 -77 14 -380 65 -673 114 -518 87 -582 99
-582 105 0 2 11 45 25 97 40 150 56 265 56 393 0 100 -5 138 -29 230 -16 61
-32 118 -36 128 -6 12 -4 17 8 17 9 0 211 -31 449 -69z"/>
<path d="M805 3120 c-8 -14 3 -30 21 -30 8 0 14 9 14 20 0 21 -24 28 -35 10z"/>
<path d="M1815 3124 c-11 -2 -68 -6 -127 -9 -118 -7 -152 -21 -128 -50 12 -14
28 -16 114 -11 56 3 189 11 296 16 241 12 280 17 280 35 0 7 -7 16 -16 19 -16
6 -381 6 -419 0z"/>
<path d="M4476 3734 c-3 -9 -13 -57 -21 -107 -8 -50 -19 -95 -25 -101 -13 -13
-14 -286 0 -287 14 -2 22 -5 43 -14 10 -4 20 -5 24 -2 3 4 7 104 10 224 2 120
5 236 6 258 1 30 -2 40 -14 43 -9 2 -19 -5 -23 -14z"/>
</g>
</svg>
